Simulation
nRows=28
nColumns=15
endheader
time  TH_x TH_y TH_z SC_y  SC_z  SC_x  AC_y  AC_z  AC_x  GH_y  GH_z  GH_yy  EL_x  PS_y
5.745  0.000000  0.000000  0.000000  -49.86839571763858  18.986472441343047  33.21983569799323  72.62029445615453  -6.234083808262562  26.178681641937885  -7.609867970086475  61.39516858404746  -15.01112083189807  18.432282390851707  120.000000
5.80245  0.000000  0.000000  0.000000  -48.603857567396666  17.790673228193  29.283766338911658  72.91749507148054  -6.092238551152555  26.296657341418722  -7.961149800689084  61.02812029480972  -14.295169521300537  18.72723129891156  120.000000
5.8599  0.000000  0.000000  0.000000  -47.14688988510974  16.150588134740616  24.58320662001603  73.13273521008422  -5.92175724337121  26.474937955202158  -8.53627766730882  60.53390094296931  -13.011744596963293  19.114776764866285  120.000000
5.91735  0.000000  0.000000  0.000000  -45.62393082851689  14.029315109470174  19.347059548087728  73.15616176231315  -5.778332145591637  26.667717997799024  -9.324100255792649  59.989531537665286  -11.129227307098551  19.509257354062196  120.000000
5.9748  0.000000  0.000000  0.000000  -44.16284237458957  11.42880960450706  13.842000765081783  72.88483776607862  -5.733249349586366  26.808219494372107  -10.263941058300707  59.47853048791428  -8.690984828407311  19.812746473811263  120.000000
6.03225  0.000000  0.000000  0.000000  -42.8517739732533  8.393238181239028  8.351502969032348  72.24306283694399  -5.858907522842299  26.819515018148177  -11.269208128198908  59.04701391597345  -5.828184448005725  19.94384306581917  120.000000
6.089700000000001  0.000000  0.000000  0.000000  -41.681481269521655  5.023461474677484  3.166419088550966  71.1975162919556  -6.214885438029726  26.621701850736514  -12.299022506783054  58.66991896423377  -2.7288968443368296  19.8503852067472  120.000000
6.14715  0.000000  0.000000  0.000000  -40.53174282925742  1.4960353118343759  -1.412899312535432  69.76537884538524  -6.829924360427587  26.149099820765777  -13.391360547918973  58.22692352936942  0.40726491597585085  19.508260787838275  120.000000
6.2046  0.000000  0.000000  0.000000  -39.24149414657264  -1.9171641080833792  -5.095313844131415  68.02227421450023  -7.689670268308605  25.366356448328812  -14.578949754614468  57.512231096777676  3.3948592824012516  18.92021375931241  120.000000
6.26205  0.000000  0.000000  0.000000  -37.788623134334536  -4.871926632281216  -7.660306284560832  66.10571794139423  -8.735964509627568  24.27972655277681  -15.72423790652315  56.2902884853921  6.0534199994490265  18.14414174502259  120.000000
6.3195  0.000000  0.000000  0.000000  -36.385244494041814  -7.037293861146679  -9.028995743466503  64.19024930257717  -9.8875897102032  22.92412060301849  -16.5007902821595  54.36910054521044  8.225224140151676  17.303469702140582  120.000000
6.37695  0.000000  0.000000  0.000000  -35.287033717067565  -8.207734149255057  -9.244276336621198  62.42782960501716  -11.10011989354476  21.34685088195774  -16.63606672872062  51.681514770132175  9.838275200407958  16.524947865185652  120.000000
6.4344  0.000000  0.000000  0.000000  -34.580518649637455  -8.364157027355839  -8.431959199649414  60.87604069647201  -12.319013958266767  19.58758358468441  -16.07521434841507  48.25777424781306  10.922310971150598  15.868501151996366  120.000000
6.49185  0.000000  0.000000  0.000000  -34.218723934959385  -7.7002129777723916  -6.852703054576567  59.48457200472496  -13.322362031870142  17.602506648229294  -14.822500088450514  44.13589584279674  11.512580951208982  15.368131834171177  120.000000
6.549300000000001  0.000000  0.000000  0.000000  -34.1062209307628  -6.530313724596565  -4.884600633346646  58.165495811017536  -13.782297893982536  15.342763108145684  -12.764670443509427  39.36691931189347  11.53223965517259  15.074473501781405  120.000000
6.60675  0.000000  0.000000  0.000000  -34.12120725471303  -5.138157314395834  -2.918029010320638  56.849985326597476  -13.491307517875825  12.88980413596857  -9.690534522505752  34.111090521386984  10.77945687625146  15.015490608152122  120.000000
6.6642  0.000000  0.000000  0.000000  -34.21820141202558  -3.7090982970203714  -1.2932693613463537  55.48477413609016  -12.43707428026069  10.441504460819752  -5.272748477059903  28.671320252153652  8.912382279214528  15.190028529405428  120.000000
6.72165  0.000000  0.000000  0.000000  -34.43759001973899  -2.3806174548109356  -0.25439677203363265  54.03694642734212  -10.7309615487444  8.19034714933899  0.9733087704686811  23.453908811032633  5.410241390607397  15.559398865453097  120.000000
6.7791  0.000000  0.000000  0.000000  -34.80867809531931  -1.278329284024988  0.08778133844721135  52.494782058399394  -8.525898153220046  6.24059016485495  9.556402648347392  18.87608877352428  -0.3058520016620904  16.04489062056758  120.000000
6.83655  0.000000  0.000000  0.000000  -35.32899279748821  -0.43982958975993297  -0.21401554269734116  50.8820565872792  -6.0085744785465645  4.641845959662207  20.851490293522588  15.243247731052293  -8.68882779202457  16.552001386566257  120.000000
6.894  0.000000  0.000000  0.000000  -35.99856443981973  0.14912480657700297  -0.9886211629629327  49.26405798142725  -3.374009620719821  3.4064317713837267  34.80293088362396  12.723847382856311  -19.742343581186148  16.991370659840904  120.000000
6.95145  0.000000  0.000000  0.000000  -36.794576942799274  0.5226226799675693  -2.0592011063347897  47.70133365223082  -0.7606330374159829  2.5244325346387244  50.22556142581366  11.303565088991888  -32.31236035956093  17.296835628523127  120.000000
7.008900000000001  0.000000  0.000000  0.000000  -37.66380791767969  0.7398614783363122  -3.280204204257214  46.23441776751088  1.7460981592226643  1.9582360809344432  65.01173294089334  10.756558430525299  -44.33678469020213  17.43539652871875  120.000000
7.06635  0.000000  0.000000  0.000000  -38.562367420670405  0.8551865181355599  -4.5285021797720235  44.89659992370338  4.073099197569381  1.6521461123340127  77.5869659307848  10.765353741136398  -54.32991087370263  17.419067504878484  120.000000
7.1238  0.000000  0.000000  0.000000  -39.45406476909908  0.9100654799482014  -5.711171149348718  43.72132255719799  6.158807410338444  1.5533961572634047  87.57354273531101  11.057881844315649  -62.01144968355911  17.312222013873278  120.000000
7.18125  0.000000  0.000000  0.000000  -40.31633434656644  0.9315514392937844  -6.764455141849636  42.741562147783256  7.963076585580368  1.6120479541838977  95.28103789729082  11.45232801735861  -67.77725675627525  17.202750967056758  120.000000
7.2387  0.000000  0.000000  0.000000  -41.14289194694768  0.9434657860973825  -7.6469691197840355  41.98678419466145  9.469096021968243  1.7809844945702553  101.1720088489143  11.839442076550133  -72.14992234424513  17.16362628782355  120.000000
7.29615  0.000000  0.000000  0.000000  -41.929370340230676  0.9722101326220824  -8.332906187675281  41.477665469623105  10.682098644912003  2.0118159347610347  105.65240942619202  12.148648980164442  -75.55027032770029  17.227255882392893  120.000000
